<?xml version="1.0" encoding="UTF-8"?><svg id="a" xmlns="http://www.w3.org/2000/svg" xmlns:xlink="http://www.w3.org/1999/xlink" viewBox="0 0 96 96"><defs><style>.m{fill:url(#e);}.n{fill:url(#d);}.o{fill:url(#g);}.p{fill:url(#f);}.q{fill:url(#i);}.r{fill:url(#h);}.s{fill:url(#k);}.t{fill:url(#j);}.u{fill:url(#l);}.v{fill:url(#c);}.w{fill:url(#b);}.x{fill:#fff;}</style><linearGradient id="b" x1="19.35" y1="27.24" x2="73.23" y2="81.12" gradientTransform="matrix(1, 0, 0, 1, 0, 0)" gradientUnits="userSpaceOnUse"><stop offset=".02" stop-color="#f4f4f4"/><stop offset=".19" stop-color="#e9f0f1"/><stop offset=".49" stop-color="#cce6eb"/><stop offset=".87" stop-color="#9dd6e0"/><stop offset=".96" stop-color="#91d2de"/></linearGradient><linearGradient id="c" x1="25.6" y1="31.88" x2="81.77" y2="70.91" gradientTransform="matrix(1, 0, 0, 1, 0, 0)" gradientUnits="userSpaceOnUse"><stop offset=".28" stop-color="#f4f4f4"/><stop offset=".47" stop-color="#f1f3f3"/><stop offset=".61" stop-color="#e7eff1"/><stop offset=".73" stop-color="#d8eaed"/><stop offset=".84" stop-color="#c1e2e8"/><stop offset=".94" stop-color="#a5d8e2"/><stop offset="1" stop-color="#91d2de"/></linearGradient><linearGradient id="d" x1="36.12" y1="37.82" x2="71.07" y2="62.11" gradientTransform="matrix(1, 0, 0, 1, 0, 0)" gradientUnits="userSpaceOnUse"><stop offset="0" stop-color="#f4f4f4"/><stop offset=".3" stop-color="#cee7eb"/><stop offset=".7" stop-color="#a2d7e1"/><stop offset=".91" stop-color="#91d2de"/></linearGradient><linearGradient id="e" x1="36.12" y1="33.63" x2="71.36" y2="58.09" gradientTransform="matrix(1, 0, 0, 1, 0, 0)" gradientUnits="userSpaceOnUse"><stop offset="0" stop-color="#f4f4f4"/><stop offset=".16" stop-color="#eef2f2"/><stop offset=".36" stop-color="#deecef"/><stop offset=".59" stop-color="#c4e3e9"/><stop offset=".83" stop-color="#a0d7e1"/><stop offset=".92" stop-color="#91d2de"/></linearGradient><linearGradient id="f" x1="27.05" y1="36.96" x2="69.41" y2="36.96" gradientTransform="matrix(1, 0, 0, 1, 0, 0)" gradientUnits="userSpaceOnUse"><stop offset=".34" stop-color="#32c097"/><stop offset=".5" stop-color="#31b593"/><stop offset=".78" stop-color="#31988a"/><stop offset="1" stop-color="#317f83"/></linearGradient><linearGradient id="g" x1="43.79" y1="28.4" x2="54.08" y2="35.55" gradientTransform="matrix(1, 0, 0, 1, 0, 0)" gradientUnits="userSpaceOnUse"><stop offset=".19" stop-color="#b8e8ec"/><stop offset=".28" stop-color="#b2e4ea"/><stop offset=".73" stop-color="#99d7e1"/><stop offset="1" stop-color="#91d2df"/></linearGradient><linearGradient id="h" x1="39.24" y1="31.02" x2="49.63" y2="38.24" xlink:href="#g"/><linearGradient id="i" x1="34.68" y1="33.63" x2="45.2" y2="40.93" xlink:href="#g"/><linearGradient id="j" x1="52.72" y1="33.4" x2="63" y2="40.55" xlink:href="#g"/><linearGradient id="k" x1="48.16" y1="36.02" x2="58.56" y2="43.24" xlink:href="#g"/><linearGradient id="l" x1="43.79" y1="38.81" x2="54.03" y2="45.92" xlink:href="#g"/></defs><polygon class="w" points="87.82 56.12 48.41 33.23 8.64 56.12 48.41 79 87.82 56.12"/><polygon class="v" points="87.82 47.6 48.41 24.72 8.64 47.6 48.41 70.49 87.82 47.6"/><polygon class="n" points="69.41 46.23 48.32 33.99 27.05 46.23 48.32 58.47 69.41 46.23"/><polygon class="m" points="69.41 42.04 48.32 29.79 27.05 42.04 48.32 54.28 69.41 42.04"/><polygon class="p" points="69.41 36.96 48.32 24.72 27.05 36.96 48.32 49.2 69.41 36.96"/><g><g><g><polygon class="o" points="50.49 35.33 46.96 33.3 42.84 30.94 41.58 30.21 42.33 29.78 44.76 28.38 46.85 27.18 50.49 35.33"/><polygon class="x" points="52.91 33.92 50.49 35.33 46.85 27.18 49.27 25.78 52.91 33.92"/></g><g><polygon class="r" points="46 38.03 42.47 35.99 38.36 33.63 37 32.85 37.81 32.38 40.24 30.98 41.58 30.21 42.33 29.78 42.84 30.94 46 38.03"/><polygon class="x" points="48.43 36.61 46 38.03 42.84 30.94 42.33 29.78 44.76 28.38 46.96 33.3 48.43 36.61"/></g><g><polygon class="q" points="41.53 40.72 32.42 35.47 37 32.85 37.81 32.38 38.36 33.63 41.53 40.72"/><polygon class="x" points="43.94 39.3 41.53 40.72 38.36 33.63 37.81 32.38 40.24 30.98 42.47 35.99 43.94 39.3"/></g></g><g><g><polygon class="t" points="59.42 40.34 55.88 38.3 51.77 35.94 50.51 35.21 51.26 34.78 53.69 33.38 55.77 32.18 59.42 40.34"/><polygon class="x" points="61.83 38.92 59.42 40.34 55.77 32.18 58.2 30.78 61.83 38.92"/></g><g><polygon class="s" points="54.93 43.03 51.4 40.99 47.29 38.63 45.93 37.85 46.73 37.38 49.17 35.98 50.51 35.21 51.26 34.78 51.77 35.94 54.93 43.03"/><polygon class="x" points="57.36 41.61 54.93 43.03 51.77 35.94 51.26 34.78 53.69 33.38 55.88 38.3 57.36 41.61"/></g><g><polygon class="u" points="50.45 45.72 41.53 40.72 45.93 37.85 46.73 37.38 47.29 38.63 50.45 45.72"/><polygon class="x" points="52.87 44.3 50.45 45.72 47.29 38.63 46.73 37.38 49.17 35.98 51.4 40.99 52.87 44.3"/></g></g></g></svg>