<?xml version="1.0" encoding="UTF-8"?><svg id="a" xmlns="http://www.w3.org/2000/svg" xmlns:xlink="http://www.w3.org/1999/xlink" viewBox="0 0 96 96"><defs><style>.e{fill:url(#d);}.f{fill:url(#c);}.g{fill:url(#b);}.h{fill:#fff;}</style><linearGradient id="b" x1="37.4" y1="15" x2="141.05" y2="118.65" gradientTransform="matrix(1, 0, 0, 1, 0, 0)" gradientUnits="userSpaceOnUse"><stop offset=".17" stop-color="#f4f4f4"/><stop offset=".23" stop-color="#eef2f2"/><stop offset=".31" stop-color="#dfecef"/><stop offset=".39" stop-color="#c5e4e9"/><stop offset=".48" stop-color="#a2d7e1"/><stop offset=".51" stop-color="#91d2de"/></linearGradient><linearGradient id="c" x1="37.27" y1="39.47" x2="55.06" y2="57.26" gradientTransform="matrix(1, 0, 0, 1, 0, 0)" gradientUnits="userSpaceOnUse"><stop offset=".34" stop-color="#32c097"/><stop offset=".5" stop-color="#31b593"/><stop offset=".78" stop-color="#31988a"/><stop offset="1" stop-color="#317f83"/></linearGradient><linearGradient id="d" x1="12.93" y1="38.69" x2="55.45" y2="81.21" gradientTransform="matrix(1, 0, 0, 1, 0, 0)" gradientUnits="userSpaceOnUse"><stop offset=".19" stop-color="#b8e8ec"/><stop offset=".28" stop-color="#b2e4ea"/><stop offset=".73" stop-color="#99d7e1"/><stop offset="1" stop-color="#91d2df"/></linearGradient></defs><path class="g" d="M75,25.63V61.35c0,1.45-1.17,2.62-2.62,2.62h-12.98v-23.52l-11.62-10.44h-12.1v-12.21c0-1.45,1.17-2.62,2.62-2.62h25.08l11.62,10.44Z"/><path class="h" d="M59.4,40.45v23.52h-21.1c-1.44,0-2.62-1.17-2.62-2.62V30.01h12.1l11.62,10.44Z"/><path class="f" d="M54.85,42.96v14.5h-13.01c-.89,0-1.61-.72-1.61-1.61v-19.33h7.46l7.16,6.44Z"/><path class="e" d="M59.4,63.97v12.21c0,1.45-1.17,2.62-2.62,2.62H22.7c-1.44,0-2.62-1.17-2.62-2.62V32.63c0-1.45,1.17-2.62,2.62-2.62h12.98v31.35c0,1.45,1.17,2.62,2.62,2.62h21.1Z"/></svg>