<?xml version="1.0" encoding="UTF-8"?><svg id="a" xmlns="http://www.w3.org/2000/svg" xmlns:xlink="http://www.w3.org/1999/xlink" viewBox="0 0 96 96"><defs><style>.f{fill:url(#e);}.g{fill:url(#d);}.h{fill:url(#b);}.i{fill:none;}.j{clip-path:url(#c);}</style><linearGradient id="b" x1="6.68" y1="45.28" x2="87" y2="45.28" gradientTransform="matrix(1, 0, 0, 1, 0, 0)" gradientUnits="userSpaceOnUse"><stop offset=".19" stop-color="#b8e8ec"/><stop offset=".28" stop-color="#b2e4ea"/><stop offset=".73" stop-color="#99d7e1"/><stop offset="1" stop-color="#91d2df"/></linearGradient><clipPath id="c"><path class="i" d="M76.63,44.27c-1.22,0-2.38,.22-3.46,.6-1.58-6.88-7.73-12.01-15.09-12.01-1.68,0-3.3,.27-4.82,.77-2.92-4.83-8.22-8.06-14.27-8.06-8.54,0-15.57,6.42-16.54,14.69-1.02-.27-2.09-.43-3.2-.43-6.95,0-12.58,5.63-12.58,12.58s5.63,12.58,12.58,12.58h57.38c5.73,0,10.37-4.64,10.37-10.37s-4.64-10.37-10.37-10.37Z"/></clipPath><linearGradient id="d" x1="-2061.21" y1="36.86" x2="-2105.18" y2="80.82" gradientTransform="translate(-2022.7) rotate(-180) scale(1 -1)" gradientUnits="userSpaceOnUse"><stop offset=".34" stop-color="#32c097"/><stop offset=".5" stop-color="#31b593"/><stop offset=".78" stop-color="#31988a"/><stop offset="1" stop-color="#317f83"/></linearGradient><linearGradient id="e" x1="-2064.87" y1="36.86" x2="-2108.83" y2="80.82" gradientTransform="translate(-2022.7) rotate(-180) scale(1 -1)" gradientUnits="userSpaceOnUse"><stop offset=".25" stop-color="#f4f4f4"/><stop offset=".9" stop-color="#99d5df"/><stop offset=".96" stop-color="#91d2de"/></linearGradient></defs><path class="h" d="M76.63,44.27c-1.22,0-2.38,.22-3.46,.6-1.58-6.88-7.73-12.01-15.09-12.01-1.68,0-3.3,.27-4.82,.77-2.92-4.83-8.22-8.06-14.27-8.06-8.54,0-15.57,6.42-16.54,14.69-1.02-.27-2.09-.43-3.2-.43-6.95,0-12.58,5.63-12.58,12.58s5.63,12.58,12.58,12.58h57.38c5.73,0,10.37-4.64,10.37-10.37s-4.64-10.37-10.37-10.37Z"/><g class="j"><path class="g" d="M31.47,47.52c1.02,0,2,.19,2.92,.51,1.33-5.8,6.52-10.13,12.72-10.13,1.42,0,2.78,.23,4.06,.65,2.46-4.07,6.93-6.79,12.03-6.79,7.2,0,13.13,5.41,13.95,12.39,.86-.23,1.77-.36,2.7-.36,5.86,0,10.61,4.75,10.61,10.61s-4.75,10.61-10.61,10.61H31.47c-4.83,0-8.74-3.91-8.74-8.74s3.91-8.74,8.74-8.74Z"/><path class="f" d="M35.12,47.52c1.02,0,2,.19,2.92,.51,1.33-5.8,6.52-10.13,12.72-10.13,1.42,0,2.78,.23,4.06,.65,2.46-4.07,6.93-6.79,12.03-6.79,7.2,0,13.13,5.41,13.95,12.39,.86-.23,1.77-.36,2.7-.36,5.86,0,10.61,4.75,10.61,10.61s-4.75,10.61-10.61,10.61H35.12c-4.83,0-8.74-3.91-8.74-8.74s3.91-8.74,8.74-8.74Z"/></g></svg>