<?xml version="1.0" encoding="UTF-8"?><svg id="a" xmlns="http://www.w3.org/2000/svg" xmlns:xlink="http://www.w3.org/1999/xlink" viewBox="0 0 96 96"><defs><style>.i{fill:url(#e);}.j{fill:url(#d);}.k{fill:url(#g);}.l{fill:url(#f);}.m{fill:url(#h);}.n{fill:url(#c);}.o{fill:url(#b);}.p{fill:#fff;}</style><linearGradient id="b" x1="20.41" y1="27.99" x2="72.16" y2="79.74" gradientTransform="matrix(1, 0, 0, 1, 0, 0)" gradientUnits="userSpaceOnUse"><stop offset=".28" stop-color="#f4f4f4"/><stop offset=".47" stop-color="#f1f3f3"/><stop offset=".61" stop-color="#e7eff1"/><stop offset=".73" stop-color="#d8eaed"/><stop offset=".84" stop-color="#c1e2e8"/><stop offset=".94" stop-color="#a5d8e2"/><stop offset="1" stop-color="#91d2de"/></linearGradient><linearGradient id="c" x1="26.41" y1="32.45" x2="80.36" y2="69.93" gradientTransform="matrix(1, 0, 0, 1, 0, 0)" gradientUnits="userSpaceOnUse"><stop offset=".19" stop-color="#b8e8ec"/><stop offset=".28" stop-color="#b2e4ea"/><stop offset=".73" stop-color="#99d7e1"/><stop offset="1" stop-color="#91d2df"/></linearGradient><linearGradient id="d" x1="32.01" y1="26.59" x2="60.26" y2="46.2" gradientTransform="matrix(1, 0, 0, 1, 0, 0)" gradientUnits="userSpaceOnUse"><stop offset="0" stop-color="#f4f4f4"/><stop offset=".16" stop-color="#eef2f2"/><stop offset=".36" stop-color="#deecef"/><stop offset=".59" stop-color="#c4e3e9"/><stop offset=".83" stop-color="#a0d7e1"/><stop offset=".92" stop-color="#91d2de"/></linearGradient><linearGradient id="e" x1="33.77" y1="37.13" x2="37.36" y2="40.73" gradientTransform="matrix(1, 0, 0, 1, 0, 0)" gradientUnits="userSpaceOnUse"><stop offset=".34" stop-color="#32c097"/><stop offset=".5" stop-color="#31b593"/><stop offset=".78" stop-color="#31988a"/><stop offset="1" stop-color="#317f83"/></linearGradient><linearGradient id="f" x1="46.06" y1="30.17" x2="49.66" y2="33.76" xlink:href="#e"/><linearGradient id="g" x1="48.18" y1="33.5" x2="76.43" y2="53.11" xlink:href="#d"/><linearGradient id="h" x1="61.1" y1="37.6" x2="65.78" y2="42.27" xlink:href="#e"/></defs><polygon class="o" points="86.17 55.72 48.32 33.75 10.12 55.72 48.32 77.7 86.17 55.72"/><polygon class="n" points="86.17 47.55 48.32 25.57 10.12 47.55 48.32 69.53 86.17 47.55"/><g><polygon class="j" points="26.94 53.66 56.49 36.5 56.49 13 26.94 30.16 26.94 53.66"/><path class="p" d="M29.29,32.63c-.21,0-.4-.11-.51-.3-.16-.28-.07-.65,.22-.81l21.24-12.21c.28-.16,.65-.07,.81,.22,.16,.28,.07,.65-.22,.81l-21.24,12.21c-.09,.05-.19,.08-.29,.08Z"/><g><polygon class="p" points="40.41 30.95 40.41 41.31 30.72 46.92 30.72 36.57 40.41 30.95"/><polygon class="i" points="33.41 42.78 33.41 37.48 37.72 35.09 37.72 40.37 33.41 42.78"/></g><g><polygon class="p" points="52.71 23.81 52.71 34.16 43.03 39.78 43.03 29.43 52.71 23.81"/><polygon class="l" points="45.71 35.82 45.71 30.52 50.02 28.12 50.02 33.4 45.71 35.82"/></g></g><g><polygon class="k" points="43.11 60.57 72.66 43.41 72.66 19.91 43.11 37.07 43.11 60.57"/><path class="p" d="M45.46,40.13c-.21,0-.4-.11-.51-.3-.16-.28-.07-.65,.22-.81l21.24-12.21c.28-.16,.65-.07,.81,.22,.16,.28,.07,.65-.22,.81l-21.24,12.21c-.09,.05-.19,.08-.29,.08Z"/><g><polygon class="p" points="53.66 45.53 53.64 49.74 50.97 51.29 50.97 47.09 52.13 46.42 53.18 45.81 53.66 45.53"/><polygon class="p" points="57.38 41.54 57.35 47.59 54.68 49.14 54.68 43.1 56.5 42.05 57.38 41.54"/><polygon class="p" points="61.08 38.56 61.05 45.44 58.38 46.98 58.38 40.12 61.04 38.58 61.08 38.56"/><polygon class="m" points="64.8 35.05 64.76 43.29 62.09 44.83 62.09 36.61 64.75 35.07 64.8 35.05"/></g></g></svg>