<?xml version="1.0" encoding="UTF-8"?><svg id="a" xmlns="http://www.w3.org/2000/svg" xmlns:xlink="http://www.w3.org/1999/xlink" viewBox="0 0 96 96"><defs><style>.m{fill:url(#e);}.n{fill:url(#d);}.o{fill:url(#g);}.p{fill:url(#f);}.q{fill:url(#i);}.r{fill:url(#h);}.s{fill:url(#k);}.t{fill:url(#j);}.u{fill:url(#l);}.v{fill:url(#c);}.w{fill:url(#b);}.x{fill:#fff;}</style><linearGradient id="b" x1="10.11" y1="48.04" x2="173.29" y2="48.04" gradientTransform="matrix(1, 0, 0, 1, 0, 0)" gradientUnits="userSpaceOnUse"><stop offset=".17" stop-color="#f4f4f4"/><stop offset=".23" stop-color="#eef2f2"/><stop offset=".31" stop-color="#dfecef"/><stop offset=".39" stop-color="#c5e4e9"/><stop offset=".48" stop-color="#a2d7e1"/><stop offset=".51" stop-color="#91d2de"/></linearGradient><linearGradient id="c" x1="20.24" y1="28" x2="73.56" y2="81.32" gradientTransform="matrix(1, 0, 0, 1, 0, 0)" gradientUnits="userSpaceOnUse"><stop offset=".02" stop-color="#f4f4f4"/><stop offset=".19" stop-color="#e9f0f1"/><stop offset=".49" stop-color="#cce6eb"/><stop offset=".87" stop-color="#9dd6e0"/><stop offset=".96" stop-color="#91d2de"/></linearGradient><linearGradient id="d" x1="26.42" y1="32.59" x2="82.02" y2="71.21" gradientTransform="matrix(1, 0, 0, 1, 0, 0)" gradientUnits="userSpaceOnUse"><stop offset=".28" stop-color="#f4f4f4"/><stop offset=".47" stop-color="#f1f3f3"/><stop offset=".61" stop-color="#e7eff1"/><stop offset=".73" stop-color="#d8eaed"/><stop offset=".84" stop-color="#c1e2e8"/><stop offset=".94" stop-color="#a5d8e2"/><stop offset="1" stop-color="#91d2de"/></linearGradient><linearGradient id="e" x1="58.56" y1="69.69" x2="58.56" y2="40.23" gradientTransform="matrix(1, 0, 0, 1, 0, 0)" gradientUnits="userSpaceOnUse"><stop offset=".28" stop-color="#f4f4f4" stop-opacity="0"/><stop offset=".36" stop-color="#ebf0f2" stop-opacity=".09"/><stop offset=".53" stop-color="#d3e8ec" stop-opacity=".32"/><stop offset=".75" stop-color="#aedce4" stop-opacity=".7"/><stop offset=".93" stop-color="#91d2de"/></linearGradient><linearGradient id="f" x1="66.52" y1="64.45" x2="66.52" y2="27.77" xlink:href="#e"/><linearGradient id="g" x1="30.72" y1="31.2" x2="74.28" y2="31.2" gradientTransform="matrix(1, 0, 0, 1, 0, 0)" gradientUnits="userSpaceOnUse"><stop offset=".19" stop-color="#b8e8ec"/><stop offset=".28" stop-color="#b2e4ea"/><stop offset=".73" stop-color="#99d7e1"/><stop offset="1" stop-color="#91d2df"/></linearGradient><linearGradient id="h" x1="42.71" y1="38.26" x2="55.98" y2="38.26" gradientTransform="matrix(1, 0, 0, 1, 0, 0)" gradientUnits="userSpaceOnUse"><stop offset=".34" stop-color="#32c097"/><stop offset=".5" stop-color="#31b593"/><stop offset=".78" stop-color="#31988a"/><stop offset="1" stop-color="#317f83"/></linearGradient><linearGradient id="i" x1="47.76" y1="70.99" x2="47.76" y2="37.46" gradientTransform="matrix(1, 0, 0, 1, 0, 0)" gradientUnits="userSpaceOnUse"><stop offset=".28" stop-color="#f4f4f4" stop-opacity="0"/><stop offset=".36" stop-color="#f1f3f3" stop-opacity=".02"/><stop offset=".45" stop-color="#ebf1f2" stop-opacity=".09"/><stop offset=".54" stop-color="#e1edef" stop-opacity=".19"/><stop offset=".63" stop-color="#d2e8ec" stop-opacity=".34"/><stop offset=".73" stop-color="#bfe2e8" stop-opacity=".53"/><stop offset=".83" stop-color="#a9dae3" stop-opacity=".75"/><stop offset=".93" stop-color="#91d2de"/></linearGradient><linearGradient id="j" x1="38.43" y1="64.4" x2="38.43" y2="38.59" gradientTransform="matrix(1, 0, 0, 1, 0, 0)" gradientUnits="userSpaceOnUse"><stop offset=".28" stop-color="#f4f4f4" stop-opacity="0"/><stop offset=".35" stop-color="#f1f3f3" stop-opacity=".02"/><stop offset=".43" stop-color="#ebf1f2" stop-opacity=".09"/><stop offset=".51" stop-color="#e1edef" stop-opacity=".19"/><stop offset=".6" stop-color="#d2e8ec" stop-opacity=".34"/><stop offset=".69" stop-color="#bfe2e8" stop-opacity=".53"/><stop offset=".78" stop-color="#a9dae3" stop-opacity=".75"/><stop offset=".86" stop-color="#91d2de"/></linearGradient><linearGradient id="k" x1="30.1" y1="66.27" x2="30.1" y2="34.73" gradientTransform="matrix(1, 0, 0, 1, 0, 0)" gradientUnits="userSpaceOnUse"><stop offset=".28" stop-color="#f4f4f4" stop-opacity="0"/><stop offset=".35" stop-color="#f1f3f3" stop-opacity=".02"/><stop offset=".42" stop-color="#ebf1f2" stop-opacity=".09"/><stop offset=".5" stop-color="#e1edef" stop-opacity=".19"/><stop offset=".58" stop-color="#d2e8ec" stop-opacity=".34"/><stop offset=".67" stop-color="#bfe2e8" stop-opacity=".53"/><stop offset=".75" stop-color="#a9dae3" stop-opacity=".75"/><stop offset=".83" stop-color="#91d2de"/></linearGradient><linearGradient id="l" x1="34.96" y1="42.5" x2="34.96" y2="23.14" gradientTransform="matrix(1, 0, 0, 1, 0, 0)" gradientUnits="userSpaceOnUse"><stop offset=".18" stop-color="#f4f4f4" stop-opacity="0"/><stop offset=".22" stop-color="#eaf0f1" stop-opacity=".09"/><stop offset=".36" stop-color="#cbe6ea" stop-opacity=".41"/><stop offset=".49" stop-color="#b2dde5" stop-opacity=".66"/><stop offset=".6" stop-color="#a0d7e1" stop-opacity=".85"/><stop offset=".68" stop-color="#95d3de" stop-opacity=".96"/><stop offset=".73" stop-color="#91d2de"/></linearGradient></defs><path class="w" d="M87,48.06m-76.89-.05"/><polygon class="v" points="88 56.58 49 33.93 9.64 56.58 49 79.22 88 56.58"/><polygon class="n" points="88 48.15 49 25.5 9.64 48.15 49 70.8 88 48.15"/><g><polygon class="m" points="63 54.39 54.13 59.58 54.13 49.72 63 44.53 63 54.39"/><polygon class="p" points="74.28 42.49 58.76 51.86 58.76 41.99 74.28 33.12 74.28 42.49"/><g><polygon class="o" points="74.28 33.12 58.72 42.04 56.14 40.54 55.98 40.63 46.03 34.85 45.98 34.82 45.22 34.38 42.71 36.03 45.19 34.36 40.06 31.38 39.2 30.88 30.72 25.96 40.29 20.36 57.69 30.2 63.54 26.63 74.28 33.12"/><polygon class="x" points="63 44.53 54.13 49.72 41.4 42.35 35.45 45.84 24.78 39.33 39.2 30.88 40.06 31.38 45.19 34.36 42.71 36.03 53.36 42.13 55.98 40.63 56.14 40.54 58.72 42.04 63 44.53"/><polygon class="r" points="55.98 40.63 53.36 42.13 42.71 36.03 45.22 34.38 45.98 34.82 46.03 34.85 55.98 40.63"/></g><polygon class="q" points="54.13 59.48 41.4 52.11 41.4 42.35 54.13 49.72 54.13 59.48"/><polygon class="t" points="41.4 42.35 35.45 45.84 35.45 55.54 41.4 52.05 41.4 42.35"/><polygon class="s" points="35.45 45.84 24.78 39.33 24.75 48.94 35.43 55.45 35.45 45.84"/><polygon class="u" points="30.72 25.96 30.72 35.85 39.2 30.88 30.72 25.96"/></g></svg>