<?xml version="1.0" encoding="UTF-8"?><svg id="a" xmlns="http://www.w3.org/2000/svg" xmlns:xlink="http://www.w3.org/1999/xlink" viewBox="0 0 96 96"><defs><style>.e{fill:url(#d);}.f{fill:url(#c);}.g{fill:url(#b);}.h{fill:#fff;}.i{opacity:.5;}</style><linearGradient id="b" x1="14.42" y1="20.27" x2="69.96" y2="75.81" gradientTransform="matrix(1, 0, 0, 1, 0, 0)" gradientUnits="userSpaceOnUse"><stop offset=".25" stop-color="#f4f4f4"/><stop offset=".9" stop-color="#99d5df"/><stop offset=".96" stop-color="#91d2de"/></linearGradient><linearGradient id="c" x1="42.1" y1="41.99" x2="54.22" y2="54.12" gradientTransform="matrix(1, 0, 0, 1, 0, 0)" gradientUnits="userSpaceOnUse"><stop offset=".34" stop-color="#32c097"/><stop offset=".5" stop-color="#31b593"/><stop offset=".78" stop-color="#31988a"/><stop offset="1" stop-color="#317f83"/></linearGradient><linearGradient id="d" x1="49.82" y1="43.76" x2="111.64" y2="105.58" gradientTransform="matrix(1, 0, 0, 1, 0, 0)" gradientUnits="userSpaceOnUse"><stop offset=".19" stop-color="#b8e8ec"/><stop offset=".28" stop-color="#b2e4ea"/><stop offset=".73" stop-color="#99d7e1"/><stop offset="1" stop-color="#91d2df"/></linearGradient></defs><path class="g" d="M61.11,26.53v11.21h-23.12c-1.53,0-2.77,1.24-2.77,2.78v17.85H12.09c-1.54,0-2.78-1.24-2.78-2.78V26.53c0-1.54,1.24-2.78,2.78-2.78H58.33c1.54,0,2.78,1.24,2.78,2.78Z"/><path class="h" d="M61.11,37.74v17.85c0,1.54-1.24,2.78-2.78,2.78h-23.11v-17.85c0-1.54,1.24-2.78,2.77-2.78h23.12Z"/><path class="f" d="M55.42,42.27v10c0,.86-.7,1.56-1.56,1.56h-12.95v-10c0-.86,.7-1.56,1.55-1.56h12.96Z"/><path class="e" d="M87,40.52v29.06c0,1.54-1.24,2.78-2.77,2.78H37.99c-1.53,0-2.77-1.24-2.77-2.78v-11.22h23.11c.17,0,.35-.02,.51-.05,.98-.18,1.77-.88,2.1-1.8,.11-.29,.17-.6,.17-.93v-17.85h23.12c1.53,0,2.77,1.24,2.77,2.77Z"/><g class="i"><rect class="h" x="61.11" y="45.22" width="20.29" height="3.72"/><path class="h" d="M81.39,54.23v4.09h-22.55c.98-.18,1.77-.88,2.1-1.8,.11-.29,.17-.6,.17-.93v-1.36h20.29Z"/><rect class="h" x="40.83" y="63.44" width="40.57" height="4.09"/></g></svg>