<?xml version="1.0" encoding="UTF-8"?><svg id="a" xmlns="http://www.w3.org/2000/svg" xmlns:xlink="http://www.w3.org/1999/xlink" viewBox="0 0 96 96"><defs><style>.e{fill:url(#d);}.f{fill:url(#c);}.g{fill:url(#b);}.h{fill:#fff;}</style><linearGradient id="b" x1="12.1" y1="17" x2="68.76" y2="73.66" gradientTransform="matrix(1, 0, 0, 1, 0, 0)" gradientUnits="userSpaceOnUse"><stop offset=".17" stop-color="#f4f4f4"/><stop offset=".28" stop-color="#eef2f2"/><stop offset=".41" stop-color="#dfecef"/><stop offset=".55" stop-color="#c5e4e9"/><stop offset=".7" stop-color="#a2d7e1"/><stop offset=".77" stop-color="#91d2de"/></linearGradient><linearGradient id="c" x1="33.42" y1="49.95" x2="61.3" y2="49.95" gradientTransform="matrix(1, 0, 0, 1, 0, 0)" gradientUnits="userSpaceOnUse"><stop offset=".34" stop-color="#32c097"/><stop offset=".5" stop-color="#31b593"/><stop offset=".78" stop-color="#31988a"/><stop offset="1" stop-color="#317f83"/></linearGradient><linearGradient id="d" x1="45.15" y1="45.42" x2="82.62" y2="82.89" gradientTransform="matrix(1, 0, 0, 1, 0, 0)" gradientUnits="userSpaceOnUse"><stop offset=".19" stop-color="#b8e8ec"/><stop offset=".28" stop-color="#b2e4ea"/><stop offset=".73" stop-color="#99d7e1"/><stop offset="1" stop-color="#91d2df"/></linearGradient></defs><path class="g" d="M61.3,23.59v19.15h-24.96c-1.62,0-2.93,1.31-2.93,2.93v11.48H9.64c-1.62,0-2.92-1.31-2.92-2.93V23.59c0-1.62,1.31-2.92,2.92-2.92H58.37c1.62,0,2.93,1.31,2.93,2.92Z"/><path class="f" d="M61.3,42.74v11.48c0,1.62-1.31,2.93-2.93,2.93h-24.96v-11.48c0-1.62,1.31-2.93,2.93-2.93h24.96Z"/><path class="e" d="M88,45.67v30.62c0,1.62-1.31,2.93-2.93,2.93H36.35c-1.62,0-2.93-1.31-2.93-2.93v-19.14h24.96c1.62,0,2.93-1.31,2.93-2.93v-11.48h23.77c1.62,0,2.93,1.31,2.93,2.93Z"/><g><circle class="h" cx="10.63" cy="25.59" r="1.34"/><circle class="h" cx="15.72" cy="25.59" r="1.34"/><circle class="h" cx="20.82" cy="25.59" r="1.34"/></g><g><rect class="h" x="39.9" y="59.89" width="20.51" height="1.77"/><rect class="h" x="50.15" y="63.65" width="20.51" height="1.77"/><rect class="h" x="73.16" y="63.65" width="8.68" height="1.77"/></g><g><rect class="h" x="39.9" y="68.98" width="20.51" height="1.77"/><rect class="h" x="50.15" y="72.75" width="20.51" height="1.77"/><rect class="h" x="73.16" y="72.75" width="8.68" height="1.77"/></g></svg>