<?xml version="1.0" encoding="UTF-8"?><svg id="a" xmlns="http://www.w3.org/2000/svg" xmlns:xlink="http://www.w3.org/1999/xlink" viewBox="0 0 96 96"><defs><style>.f{fill:url(#e);}.g{fill:url(#d);}.h{fill:url(#c);}.i{fill:url(#b);}</style><linearGradient id="b" x1="33.78" y1="23.17" x2="71.54" y2="60.94" gradientTransform="matrix(1, 0, 0, 1, 0, 0)" gradientUnits="userSpaceOnUse"><stop offset=".25" stop-color="#f4f4f4"/><stop offset=".37" stop-color="#eef2f2"/><stop offset=".53" stop-color="#dfecef"/><stop offset=".7" stop-color="#c5e4e9"/><stop offset=".89" stop-color="#a2d7e1"/><stop offset=".96" stop-color="#91d2de"/></linearGradient><linearGradient id="c" x1="41.11" y1="30.5" x2="58.22" y2="47.62" gradientTransform="matrix(1, 0, 0, 1, 0, 0)" gradientUnits="userSpaceOnUse"><stop offset=".34" stop-color="#32c097"/><stop offset=".5" stop-color="#31b593"/><stop offset=".78" stop-color="#31988a"/><stop offset="1" stop-color="#317f83"/></linearGradient><linearGradient id="d" x1="39.8" y1="68.5" x2="54.57" y2="83.28" gradientTransform="matrix(1, 0, 0, 1, 0, 0)" gradientUnits="userSpaceOnUse"><stop offset=".19" stop-color="#b8e8ec"/><stop offset=".28" stop-color="#b2e4ea"/><stop offset=".73" stop-color="#99d7e1"/><stop offset="1" stop-color="#91d2df"/></linearGradient><linearGradient id="e" x1="18.77" y1="18.1" x2="70.32" y2="69.65" xlink:href="#b"/></defs><path class="i" d="M47.18,58.15c-6.97,0-12.64-5.67-12.64-12.64V27.63c0-6.97,5.67-12.63,12.64-12.63s12.63,5.67,12.63,12.63v17.88c0,3.37-1.31,6.55-3.7,8.94-2.39,2.39-5.56,3.7-8.93,3.7Z"/><path class="h" d="M47.18,46.35c-3.16,0-5.73-2.57-5.73-5.73v-8.1c0-3.16,2.57-5.73,5.73-5.73s5.73,2.57,5.73,5.73v8.1c0,1.53-.6,2.97-1.68,4.05-1.08,1.08-2.52,1.68-4.05,1.68Z"/><path class="g" d="M55.78,75.15h-5.73v-11.16h-5.73v11.16h-5.73c-1.58,0-2.87,1.28-2.87,2.87s1.28,2.87,2.87,2.87h17.19c1.58,0,2.87-1.28,2.87-2.87s-1.28-2.87-2.87-2.87Z"/><path class="f" d="M47.18,66.85c-11.67,0-21.16-9.49-21.16-21.16v-7.12h5.73v7.12c0,8.51,6.92,15.42,15.42,15.42s15.42-6.92,15.42-15.42v-7.12h5.73v7.12c0,11.67-9.49,21.16-21.16,21.16Z"/></svg>