<?xml version="1.0" encoding="UTF-8"?><svg id="a" xmlns="http://www.w3.org/2000/svg" xmlns:xlink="http://www.w3.org/1999/xlink" viewBox="0 0 96 96"><defs><style>.e{fill:url(#d);}.f{fill:url(#c);}.g{fill:url(#b);}.h{fill:#fff;}</style><linearGradient id="b" x1="18.07" y1="18.34" x2="75.8" y2="76.07" gradientTransform="matrix(1, 0, 0, 1, 0, 0)" gradientUnits="userSpaceOnUse"><stop offset=".17" stop-color="#f4f4f4"/><stop offset=".26" stop-color="#eef2f2"/><stop offset=".37" stop-color="#dfecef"/><stop offset=".49" stop-color="#c5e4e9"/><stop offset=".61" stop-color="#a2d7e1"/><stop offset=".67" stop-color="#91d2de"/></linearGradient><linearGradient id="c" x1="38.24" y1="54.34" x2="63.16" y2="54.34" gradientTransform="matrix(1, 0, 0, 1, 0, 0)" gradientUnits="userSpaceOnUse"><stop offset=".34" stop-color="#32c097"/><stop offset=".5" stop-color="#31b593"/><stop offset=".78" stop-color="#31988a"/><stop offset="1" stop-color="#317f83"/></linearGradient><linearGradient id="d" x1="48.98" y1="50.78" x2="78.73" y2="80.54" gradientTransform="matrix(1, 0, 0, 1, 0, 0)" gradientUnits="userSpaceOnUse"><stop offset=".19" stop-color="#b8e8ec"/><stop offset=".28" stop-color="#b2e4ea"/><stop offset=".73" stop-color="#99d7e1"/><stop offset="1" stop-color="#91d2df"/></linearGradient></defs><path class="g" d="M57.14,38.51c0,3.32,2.7,6.02,6.02,6.02v2.6h-22.47c-1.36,0-2.45,1.1-2.45,2.46v11.94c-1.44-.13-2.73-.78-3.69-1.74-1.09-1.09-1.76-2.6-1.76-4.26H16.05c-1.51,0-2.73-1.22-2.73-2.73V24.22c0-1.51,1.22-2.73,2.73-2.73H60.42c1.51,0,2.73,1.23,2.73,2.73v8.28c-3.32,0-6.02,2.69-6.02,6.01Z"/><g><circle class="h" cx="17.66" cy="24.94" r="1.25"/><circle class="h" cx="22.42" cy="24.94" r="1.25"/><circle class="h" cx="27.17" cy="24.94" r="1.25"/></g><path class="f" d="M63.16,47.13v5.68c0,1.51-1.23,2.73-2.73,2.73h-15.61c0,3.32-2.69,6.02-6.01,6.02-.19,0-.38,0-.56-.03v-11.94c0-1.36,1.09-2.46,2.45-2.46h22.47Z"/><path class="e" d="M77.59,62.42c0,2.99,2.42,5.41,5.41,5.41v7.44c0,1.35-1.11,2.45-2.46,2.45h-14.02c0,2.99-2.42,5.41-5.4,5.41-1.5,0-2.85-.61-3.82-1.59-.98-.98-1.59-2.33-1.59-3.82h-15.03c-1.36,0-2.45-1.1-2.45-2.45v-13.74c.18,.02,.37,.03,.56,.03,3.32,0,6.01-2.7,6.01-6.02h15.61c1.51,0,2.73-1.22,2.73-2.73v-5.68h17.39c1.35,0,2.46,1.1,2.46,2.46v7.43c-2.99,0-5.41,2.42-5.41,5.4Z"/><g><rect class="h" x="47.22" y="65.63" width="7.48" height="5.29"/><rect class="h" x="56.88" y="62.42" width="7.48" height="8.5"/><rect class="h" x="66.53" y="57.75" width="7.48" height="13.17"/></g></svg>