<?xml version="1.0" encoding="UTF-8"?><svg id="a" xmlns="http://www.w3.org/2000/svg" xmlns:xlink="http://www.w3.org/1999/xlink" viewBox="0 0 96 96"><defs><style>.h{fill:url(#e);}.i{fill:url(#d);}.j{fill:url(#g);}.k{fill:url(#f);}.l{fill:url(#c);}.m{fill:url(#b);}</style><linearGradient id="b" x1="9.73" y1="47.5" x2="104.59" y2="47.5" gradientTransform="matrix(1, 0, 0, 1, 0, 0)" gradientUnits="userSpaceOnUse"><stop offset=".19" stop-color="#b8e8ec"/><stop offset=".28" stop-color="#b2e4ea"/><stop offset=".73" stop-color="#99d7e1"/><stop offset="1" stop-color="#91d2df"/></linearGradient><linearGradient id="c" x1="32.59" y1="72.15" x2="51.84" y2="25.91" gradientTransform="matrix(1, 0, 0, 1, 0, 0)" gradientUnits="userSpaceOnUse"><stop offset="0" stop-color="#f4f4f4"/><stop offset=".17" stop-color="#eef2f2"/><stop offset=".39" stop-color="#dfecef"/><stop offset=".63" stop-color="#c5e4e9"/><stop offset=".89" stop-color="#a2d7e1"/><stop offset="1" stop-color="#91d2de"/></linearGradient><linearGradient id="d" x1="41.47" y1="40.31" x2="66.06" y2="64.9" gradientTransform="matrix(1, 0, 0, 1, 0, 0)" gradientUnits="userSpaceOnUse"><stop offset=".17" stop-color="#f4f4f4"/><stop offset=".32" stop-color="#eef2f2"/><stop offset=".5" stop-color="#dfecef"/><stop offset=".7" stop-color="#c5e4e9"/><stop offset=".91" stop-color="#a2d7e1"/><stop offset="1" stop-color="#91d2de"/></linearGradient><linearGradient id="e" x1="40.8" y1="20.2" x2="59.02" y2="38.42" gradientTransform="matrix(1, 0, 0, 1, 0, 0)" gradientUnits="userSpaceOnUse"><stop offset=".25" stop-color="#f4f4f4"/><stop offset=".9" stop-color="#99d5df"/><stop offset=".96" stop-color="#91d2de"/></linearGradient><linearGradient id="f" x1="42.36" y1="45.13" x2="53.52" y2="56.29" gradientTransform="matrix(1, 0, 0, 1, 0, 0)" gradientUnits="userSpaceOnUse"><stop offset="0" stop-color="#317f83"/><stop offset=".22" stop-color="#31988a"/><stop offset=".5" stop-color="#31b593"/><stop offset=".66" stop-color="#32c097"/></linearGradient><linearGradient id="g" x1="37.58" y1="41.83" x2="56.9" y2="61.14" gradientTransform="matrix(1, 0, 0, 1, 0, 0)" gradientUnits="userSpaceOnUse"><stop offset=".34" stop-color="#32c097"/><stop offset=".5" stop-color="#31b593"/><stop offset=".78" stop-color="#31988a"/><stop offset="1" stop-color="#317f83"/></linearGradient></defs><path class="m" d="M19.45,46.55c1.14,0,2.23,.21,3.25,.57,1.48-6.46,7.25-11.27,14.16-11.27,1.58,0,3.1,.25,4.52,.72,2.74-4.53,7.71-7.56,13.39-7.56,8.01,0,14.61,6.02,15.52,13.79,.96-.25,1.97-.4,3.01-.4,6.52,0,11.81,5.29,11.81,11.81s-5.29,11.81-11.81,11.81H19.45c-5.37,0-9.73-4.36-9.73-9.73s4.36-9.73,9.73-9.73Z"/><g><polygon class="l" points="34.4 70.97 47.2 78.28 47.2 34.58 34.4 26.59 34.4 70.97"/><path class="i" d="M60,26.59v44.37l-12.8,7.32v-16.43l2.66-1.91v-9.74c1.58-.93,2.65-2.64,2.65-4.61,0-2.94-2.38-5.33-5.32-5.33v-5.71l12.8-7.98Z"/><polygon class="h" points="47.2 18.61 34.4 26.59 47.2 34.58 60 26.59 47.2 18.61"/><path class="k" d="M52.52,45.61c0,1.97-1.07,3.68-2.65,4.61v9.74l-2.66,1.91v-21.58c2.94,0,5.32,2.39,5.32,5.33Z"/><path class="j" d="M47.2,40.28v21.58l-2.66-1.91v-9.74c-1.59-.92-2.66-2.64-2.66-4.61,0-2.94,2.39-5.33,5.33-5.33Z"/></g></svg>