<?xml version="1.0" encoding="UTF-8"?><svg id="a" xmlns="http://www.w3.org/2000/svg" xmlns:xlink="http://www.w3.org/1999/xlink" viewBox="0 0 96 96"><defs><style>.e{fill:url(#d);}.f{fill:url(#c);}.g{fill:url(#b);}</style><linearGradient id="b" x1="10.11" y1="48.01" x2="173.29" y2="48.01" gradientTransform="matrix(1, 0, 0, 1, 0, 0)" gradientUnits="userSpaceOnUse"><stop offset=".17" stop-color="#f4f4f4"/><stop offset=".23" stop-color="#eef2f2"/><stop offset=".31" stop-color="#dfecef"/><stop offset=".39" stop-color="#c5e4e9"/><stop offset=".48" stop-color="#a2d7e1"/><stop offset=".51" stop-color="#91d2de"/></linearGradient><linearGradient id="c" x1="48.45" y1="56.19" x2="64.71" y2="56.19" gradientTransform="matrix(1, 0, 0, 1, 0, 0)" gradientUnits="userSpaceOnUse"><stop offset=".34" stop-color="#32c097"/><stop offset=".5" stop-color="#31b593"/><stop offset=".78" stop-color="#31988a"/><stop offset="1" stop-color="#317f83"/></linearGradient><linearGradient id="d" x1="32.51" y1="39.99" x2="48.71" y2="39.99" xlink:href="#c"/></defs><path class="g" d="M67.25,28.9c-6.62,0-12.66,3.71-18.53,10.17-5.77-6.57-11.97-10.17-18.85-10.17-11.44,0-19.75,8.15-19.75,19.12s8.37,19.06,19.75,19.06c7.04,0,12.44-3.28,18.53-9.85,5.88,6.57,11.86,9.9,18.85,9.9,11.44,0,19.75-8.05,19.75-19.06s-8.31-19.17-19.75-19.17ZM29.97,55.53c-4.82,0-7.73-3.18-7.73-7.41s2.86-7.52,7.73-7.52c4.08,0,7.41,3.28,11.01,7.73-3.39,4.13-6.99,7.2-11.01,7.2Zm36.96,0c-4.02,0-7.41-3.18-11.01-7.41,3.71-4.45,6.88-7.52,11.01-7.52,4.82,0,7.68,3.34,7.68,7.52s-2.86,7.41-7.68,7.41Z"/><path class="f" d="M57.03,64.32l7.68-9.16c-3.07-.9-5.88-3.65-8.79-7.1l-7.47,9.11c2.44,2.86,5.35,5.3,8.58,7.15Z"/><path class="e" d="M48.71,39.06c-2.44-2.86-5.35-5.35-8.53-7.31l-7.68,9.27c2.91,1.01,5.51,3.65,8.26,6.99l.32,.21,7.63-9.16Z"/></svg>