<?xml version="1.0" encoding="UTF-8"?><svg id="a" xmlns="http://www.w3.org/2000/svg" xmlns:xlink="http://www.w3.org/1999/xlink" viewBox="0 0 96 96"><defs><style>.g{fill:url(#e);}.h{fill:url(#d);}.i{fill:url(#f);}.j{fill:url(#c);}.k{fill:url(#b);}.l{fill:#fff;}</style><linearGradient id="b" x1="-531.37" y1="2398.51" x2="-582.87" y2="2347.01" gradientTransform="translate(-509.28 2422.21) rotate(-180)" gradientUnits="userSpaceOnUse"><stop offset=".25" stop-color="#f4f4f4"/><stop offset=".37" stop-color="#eef2f2"/><stop offset=".53" stop-color="#dfecef"/><stop offset=".7" stop-color="#c5e4e9"/><stop offset=".89" stop-color="#a2d7e1"/><stop offset=".96" stop-color="#91d2de"/></linearGradient><linearGradient id="c" x1="40.73" y1="42.34" x2="55.25" y2="56.86" gradientTransform="matrix(1, 0, 0, 1, 0, 0)" gradientUnits="userSpaceOnUse"><stop offset=".34" stop-color="#32c097"/><stop offset=".5" stop-color="#31b593"/><stop offset=".78" stop-color="#31988a"/><stop offset="1" stop-color="#317f83"/></linearGradient><linearGradient id="d" x1="27.09" y1="29.41" x2="27.09" y2="16.75" gradientTransform="matrix(1, 0, 0, 1, 0, 0)" gradientUnits="userSpaceOnUse"><stop offset="0" stop-color="#91d2df"/><stop offset=".27" stop-color="#99d7e1"/><stop offset=".72" stop-color="#b2e4ea"/><stop offset=".81" stop-color="#b8e8ec"/></linearGradient><linearGradient id="e" x1="48.78" x2="48.78" y2="16.75" xlink:href="#d"/><linearGradient id="f" x1="70.46" y1="29.41" x2="70.46" y2="16.75" xlink:href="#d"/></defs><path class="k" d="M17.67,75h52.41l13.08-14.55V29.05c0-1.81-1.46-3.28-3.28-3.28H17.67c-1.82,0-3.28,1.47-3.28,3.28v42.67c0,1.82,1.46,3.28,3.28,3.28Z"/><path class="l" d="M29.21,65.87H62.18l8.23-9.15v-19.76c0-1.14-.92-2.06-2.06-2.06H29.21c-1.14,0-2.06,.92-2.06,2.06v26.84c0,1.14,.92,2.06,2.06,2.06Z"/><path class="j" d="M40.01,57.32h14.77l3.69-4.1v-8.85c0-.51-.41-.92-.92-.92h-17.53c-.51,0-.92,.41-.92,.92v12.03c0,.51,.41,.92,.92,.92Z"/><g><rect class="h" x="25" y="21.11" width="4.19" height="11.41" rx="2.09" ry="2.09"/><rect class="g" x="46.68" y="21.11" width="4.19" height="11.41" rx="2.09" ry="2.09"/><rect class="i" x="68.36" y="21.11" width="4.19" height="11.41" rx="2.09" ry="2.09"/></g></svg>